<?xml version="1.0" encoding="utf-8"?>
<!-- Generator: Adobe Illustrator 28.1.0, SVG Export Plug-In . SVG Version: 6.00 Build 0)  -->
<svg version="1.1" id="Lager_1" xmlns="http://www.w3.org/2000/svg" xmlns:xlink="http://www.w3.org/1999/xlink" x="0px" y="0px"
	 viewBox="0 0 24 24" style="enable-background:new 0 0 24 24;" xml:space="preserve">
<path d="M19.5,20.6l-6.3-6.3c-0.5,0.4-1.1,0.7-1.7,1c-0.6,0.2-1.3,0.3-2,0.3c-1.7,0-3.2-0.6-4.3-1.8s-1.8-2.6-1.8-4.3
	c0-1.7,0.6-3.2,1.8-4.3C6.4,4,7.8,3.4,9.5,3.4c1.7,0,3.2,0.6,4.3,1.8s1.8,2.6,1.8,4.3c0,0.7-0.1,1.4-0.4,2s-0.6,1.2-1,1.7l6.3,6.3
	C20.6,19.5,19.5,20.6,19.5,20.6z M9.5,14.1c1.3,0,2.4-0.4,3.3-1.3c0.9-0.9,1.3-2,1.3-3.3s-0.4-2.4-1.3-3.3c-0.9-0.9-2-1.3-3.3-1.3
	S7.1,5.3,6.2,6.2c-0.9,0.9-1.3,2-1.3,3.3s0.4,2.4,1.3,3.3C7.1,13.7,8.2,14.1,9.5,14.1z"/>
</svg>
